<!DOCTYPE svg PUBLIC "-//W3C//DTD SVG 1.1//EN" "http://www.w3.org/Graphics/SVG/1.1/DTD/svg11.dtd">

<!-- Uploaded to: SVG Repo, www.svgrepo.com, Transformed by: SVG Repo Mixer Tools -->
<svg fill="#000000" width="800px" height="800px" viewBox="0 0 24 24"
    xmlns="http://www.w3.org/2000/svg" transform="matrix(-1, 0, 0, 1, 0, 0)">

    <g id="SVGRepo_bgCarrier" stroke-width="0" />

    <g id="SVGRepo_tracerCarrier" stroke-linecap="round" stroke="currentColor"
        stroke-linejoin="round" />

    <g id="SVGRepo_iconCarrier">

        <path
            fill="currentColor"
            d="M21,10V20a1,1,0,0,1-1,1H10a1,1,0,0,1-1-1V10a1,1,0,0,1,1-1H20A1,1,0,0,1,21,10ZM6,14H5V5h9V6a1,1,0,0,0,2,0V4a1,1,0,0,0-1-1H4A1,1,0,0,0,3,4V15a1,1,0,0,0,1,1H6a1,1,0,0,0,0-2Z" />

    </g>

</svg>